# xmcd CD database file
#
# Track frame offsets:
#	150
#	18642
#	35770
#	50890
#	65287
#	78370
#	94080
#	109322
#	123622
#	137552
#
# Disc length: 2020 seconds
#
# Revision: 3
# Processed by: cddbd v1.4PL0 Copyright (c) Steve Scherf et al.
# Submitted via: CDex 1.40Beta9
#
DISCID=8e07e20a
DTITLE=Mark Chesnutt - I Don't Want To Miss A Thing
DYEAR=1999
DGENRE=Country
TTITLE0=I Don't Want To Miss A Thing
TTITLE1=This Heartache Never Sleeps
TTITLE2=My Way Back Home
TTITLE3=I'll Get You Back
TTITLE4=That's The Way You Make An Ex
TTITLE5=Tonight I'll Let My Memory Take Me Home
TTITLE6=Jolie
TTITLE7=What Was You Thinking
TTITLE8=I'm Gone
TTITLE9=Let's Talk About Our Love
EXTD=\n YEAR: 1999 ID3G: 2
EXTT0=
EXTT1=
EXTT2=
EXTT3=
EXTT4=
EXTT5=
EXTT6=
EXTT7=
EXTT8=
EXTT9=
PLAYORDER=
